<?xml version="1.0" encoding="UTF-8"?>
<svg xmlns="http://www.w3.org/2000/svg" viewBox="0 0 720 420" font-family="Calibri, Arial, sans-serif">
  <defs>
    <marker id="arrow" viewBox="0 0 10 6" refX="10" refY="3" markerWidth="10" markerHeight="6" orient="auto-start-reverse">
      <path d="M 0 0 L 10 3 L 0 6 z" fill="#333"/>
    </marker>
    <marker id="arrow-red" viewBox="0 0 10 6" refX="10" refY="3" markerWidth="10" markerHeight="6" orient="auto-start-reverse">
      <path d="M 0 0 L 10 3 L 0 6 z" fill="#B33"/>
    </marker>
  </defs>

  <!-- Title -->
  <text x="360" y="28" text-anchor="middle" font-size="14" font-weight="bold" fill="#222">Figure 2.2: Causal Logic and Simulation Dependency</text>

  <!-- === OBSERVED DOMAIN (left side) === -->
  <!-- Background -->
  <rect x="20" y="45" width="370" height="340" rx="8" fill="#F4F7FA" stroke="#B0BEC5" stroke-width="1" stroke-dasharray="6,3"/>
  <text x="205" y="68" text-anchor="middle" font-size="11" fill="#607D8B" font-style="italic">Observed (Survey + Market Data)</text>

  <!-- Box 1: Information Shock -->
  <rect x="50" y="85" width="170" height="50" rx="6" fill="#fff" stroke="#444" stroke-width="1.5"/>
  <text x="135" y="107" text-anchor="middle" font-size="12" font-weight="bold" fill="#222">External Information</text>
  <text x="135" y="123" text-anchor="middle" font-size="12" font-weight="bold" fill="#222">Shock</text>

  <!-- Box 2: Shock Score (SC_total) -->
  <rect x="50" y="170" width="170" height="50" rx="6" fill="#E3F2FD" stroke="#1565C0" stroke-width="1.5"/>
  <text x="135" y="192" text-anchor="middle" font-size="12" font-weight="bold" fill="#1565C0">Shock Score (SC_total)</text>
  <text x="135" y="208" text-anchor="middle" font-size="10" fill="#1565C0">Intensity measure — H₁ IV</text>

  <!-- Arrow: Shock → SC_total -->
  <line x1="135" y1="135" x2="135" y2="168" stroke="#333" stroke-width="1.5" marker-end="url(#arrow)"/>

  <!-- Box 3: Shock Score Dashboard -->
  <rect x="50" y="255" width="170" height="50" rx="6" fill="#E8F5E9" stroke="#2E7D32" stroke-width="1.5"/>
  <text x="135" y="275" text-anchor="middle" font-size="12" font-weight="bold" fill="#2E7D32">Shock Score Dashboard</text>
  <text x="135" y="291" text-anchor="middle" font-size="10" fill="#2E7D32">Treatment — H₂ IV (ShowSC)</text>

  <!-- Arrow: SC_total → Dashboard -->
  <line x1="135" y1="220" x2="135" y2="253" stroke="#333" stroke-width="1.5" marker-end="url(#arrow)"/>

  <!-- Box 4: Manager Decision (NRS) -->
  <rect x="265" y="170" width="170" height="50" rx="6" fill="#fff" stroke="#444" stroke-width="1.5"/>
  <text x="350" y="190" text-anchor="middle" font-size="12" font-weight="bold" fill="#222">Manager Decision</text>
  <text x="350" y="207" text-anchor="middle" font-size="10" fill="#555">Net Risk Stance — H₁ DV</text>

  <!-- Arrow: SC_total → NRS (horizontal) -->
  <line x1="220" y1="195" x2="263" y2="195" stroke="#333" stroke-width="1.5" marker-end="url(#arrow)"/>

  <!-- Arrow: Dashboard → NRS (diagonal) -->
  <line x1="220" y1="275" x2="270" y2="215" stroke="#2E7D32" stroke-width="1.5" marker-end="url(#arrow)"/>
  <text x="230" y="250" font-size="9" fill="#2E7D32" transform="rotate(-35, 230, 250)">intervention</text>

  <!-- === SIMULATED DOMAIN (right side) === -->
  <!-- Background with red-tinted border -->
  <rect x="440" y="45" width="260" height="340" rx="8" fill="#FFF8F6" stroke="#C62828" stroke-width="1.5" stroke-dasharray="6,3"/>
  <text x="570" y="68" text-anchor="middle" font-size="11" fill="#C62828" font-style="italic">Simulated (Model-Dependent)</text>

  <!-- Box 5: Translation Rules -->
  <rect x="470" y="170" width="200" height="50" rx="6" fill="#FFEBEE" stroke="#C62828" stroke-width="1.5"/>
  <text x="570" y="190" text-anchor="middle" font-size="12" font-weight="bold" fill="#C62828">Translation Rules</text>
  <text x="570" y="207" text-anchor="middle" font-size="10" fill="#C62828">NRS → Portfolio weights</text>

  <!-- Arrow: NRS → Translation (horizontal, red) -->
  <line x1="435" y1="195" x2="468" y2="195" stroke="#C62828" stroke-width="1.5" marker-end="url(#arrow-red)"/>

  <!-- Box 6: Portfolio Outcomes -->
  <rect x="470" y="275" width="200" height="55" rx="6" fill="#FFEBEE" stroke="#C62828" stroke-width="1.5"/>
  <text x="570" y="295" text-anchor="middle" font-size="12" font-weight="bold" fill="#C62828">Portfolio Outcomes</text>
  <text x="570" y="312" text-anchor="middle" font-size="10" fill="#C62828">Sharpe / Sortino — H₂ DV</text>

  <!-- Arrow: Translation → Outcomes -->
  <line x1="570" y1="220" x2="570" y2="273" stroke="#C62828" stroke-width="1.5" marker-end="url(#arrow-red)"/>

  <!-- === LEGEND === -->
  <rect x="50" y="345" width="12" height="12" rx="2" fill="#F4F7FA" stroke="#B0BEC5" stroke-width="1"/>
  <text x="68" y="356" font-size="10" fill="#555">Directly observed</text>

  <rect x="180" y="345" width="12" height="12" rx="2" fill="#FFF8F6" stroke="#C62828" stroke-width="1"/>
  <text x="198" y="356" font-size="10" fill="#555">Model-dependent (limitation 2.8.3)</text>

  <rect x="370" y="345" width="12" height="12" rx="2" fill="#E3F2FD" stroke="#1565C0" stroke-width="1"/>
  <text x="388" y="356" font-size="10" fill="#555">Shock Score as measure (H₁)</text>

  <rect x="530" y="345" width="12" height="12" rx="2" fill="#E8F5E9" stroke="#2E7D32" stroke-width="1"/>
  <text x="548" y="356" font-size="10" fill="#555">Shock Score as intervention (H₂)</text>

  <!-- Joint-test annotation -->
  <text x="570" y="355" text-anchor="middle" font-size="9" fill="#C62828" font-weight="bold"></text>
  <rect x="455" y="365" width="230" height="28" rx="4" fill="#FFEBEE" stroke="#C62828" stroke-width="1"/>
  <text x="570" y="383" text-anchor="middle" font-size="10" fill="#C62828" font-weight="bold">H₂ results are jointly conditional on (a) + (b)</text>
</svg>